<svg xmlns="http://www.w3.org/2000/svg" viewBox="0 0 32 32"><rect width="32" height="32" rx="7" fill="#ef5a17"/><path transform="translate(4.23 24.49) scale(0.0232 -0.0232)" d="M142 317Q119 317 102.0 334.0Q85 351 85 374V397Q85 420 102.0 437.0Q119 454 142 454H291Q300 454 300 462Q302 519 304 545Q304 553 296 553H170Q147 553 130.0 570.0Q113 587 113 610V633Q113 656 130.0 673.0Q147 690 170 690H305Q314 690 314 698Q315 712 317 742Q318 766 336.0 782.0Q354 798 378 797L427 796Q450 795 465.5 777.5Q481 760 479 737Q478 730 477.0 718.0Q476 706 476 699Q476 690 484 690H755Q778 690 795.0 673.0Q812 656 812 633V610Q812 587 795.0 570.0Q778 553 755 553H475Q466 553 466 544Q462 487 461 463Q461 454 470 454H680Q703 454 720.0 437.0Q737 420 737 397V374Q737 351 720.0 334.0Q703 317 680 317H464Q455 317 455 310Q453 234 453 210Q453 127 479.0 103.5Q505 80 598 80Q706 80 741.5 102.0Q777 124 777 184Q777 196 774 212Q770 236 782.5 255.5Q795 275 818 280L856 289Q879 294 899.0 281.5Q919 269 923 246Q930 204 930 172Q930 49 851.5 -8.0Q773 -65 598 -65Q425 -65 358.5 -5.5Q292 54 292 210Q292 273 293 310Q293 317 285 317Z" fill="#fff"/></svg>